<?xml version="1.0" standalone="no"?>
<!DOCTYPE svg PUBLIC "-//W3C//DTD SVG 20010904//EN"
 "http://www.w3.org/TR/2001/REC-SVG-20010904/DTD/svg10.dtd">
<svg version="1.0" xmlns="http://www.w3.org/2000/svg"
 width="960.000000pt" height="960.000000pt" viewBox="0 0 960.000000 960.000000"
 preserveAspectRatio="xMidYMid meet">
<metadata>
Created by potrace 1.11, written by Peter Selinger 2001-2013
</metadata>
<g transform="translate(0.000000,960.000000) scale(0.100000,-0.100000)"
fill="#000000" stroke="none">
<path d="M5660 9260 c-802 -32 -1576 -163 -2203 -371 -283 -94 -367 -138 -483
-253 -79 -79 -98 -105 -143 -196 -140 -285 -155 -617 -55 -1260 14 -91 27
-170 29 -176 2 -8 64 11 172 52 402 154 893 308 1203 378 410 92 791 128 1131
107 423 -26 658 -99 816 -257 120 -118 173 -262 173 -467 0 -126 -9 -177 -175
-973 -81 -385 -295 -1414 -476 -2289 -182 -875 -335 -1593 -342 -1597 -29 -19
-121 -48 -227 -72 -437 -97 -878 -94 -1189 10 -288 96 -458 260 -537 519 -27
86 -28 100 -28 290 0 215 12 314 61 500 127 487 438 884 935 1194 120 76 352
196 523 272 101 45 130 63 181 114 146 145 243 404 313 840 66 406 78 480 76
483 -4 5 -404 -59 -617 -99 -1553 -292 -2639 -827 -3279 -1614 -319 -392 -524
-852 -613 -1375 -43 -252 -51 -344 -51 -610 1 -274 12 -379 60 -570 217 -855
936 -1349 2198 -1510 338 -43 541 -54 1017 -54 543 0 860 19 1330 80 753 97
1488 292 1980 525 l105 50 319 1532 c810 3888 788 3778 822 4072 22 188 26
648 6 805 -91 718 -397 1204 -966 1534 -336 195 -776 325 -1256 370 -203 20
-554 26 -810 16z"/>
</g>
</svg>
